<svg xmlns="http://www.w3.org/2000/svg" width="120" height="120"><g fill="#658068"><path d="M29.88 8.116a7.492 7.492 239.876 1 1 7.52 12.96 7.492 7.492 239.876 1 1-7.52-12.96z" fill-rule="evenodd"/><path d="M29.926 111.762a7.492 7.492 120.124 1 1 7.52-12.96 7.492 7.492 120.124 1 1-7.52 12.96z" fill-rule="evenodd"/><path style="text-indent:0;text-align:start;line-height:normal;text-transform:none;block-progression:tb;-inkscape-font-specification:Sans" d="M60.023 27.27c-18.05 0-32.705 14.656-32.705 32.707 0 18.05 14.655 32.705 32.705 32.705 18.05 0 32.706-14.655 32.706-32.705 0-18.05-14.656-32.706-32.707-32.706zm0 2.11c16.91 0 30.596 13.687 30.596 30.597 0 16.91-13.687 30.595-30.597 30.595-16.91 0-30.595-13.685-30.595-30.595 0-16.91 13.685-30.596 30.595-30.596z" color="#000" stroke-width="4" overflow="visible" enable-background="accumulate" font-family="Sans"/><path d="M86.633 60.052a26.4 26.4 0 1 1-52.8 0 26.4 26.4 0 1 1 52.8 0z" fill-rule="evenodd"/><path d="M120.19 60.062a7.52 7.52 0 1 1-15.04 0 7.52 7.52 0 1 1 15.04 0z" fill-rule="evenodd"/></g></svg>