<?xml version="1.0" encoding="UTF-8" standalone="no"?>
<!-- Created with Inkscape (http://www.inkscape.org/) -->

<svg
   xmlns:dc="http://purl.org/dc/elements/1.1/"
   xmlns:cc="http://creativecommons.org/ns#"
   xmlns:rdf="http://www.w3.org/1999/02/22-rdf-syntax-ns#"
   xmlns:svg="http://www.w3.org/2000/svg"
   xmlns="http://www.w3.org/2000/svg"
   xmlns:xlink="http://www.w3.org/1999/xlink"
   xmlns:sodipodi="http://sodipodi.sourceforge.net/DTD/sodipodi-0.dtd"
   xmlns:inkscape="http://www.inkscape.org/namespaces/inkscape"
   width="480"
   height="120"
   id="svg"
   version="1.1"
   inkscape:version="0.91 r13725"
   sodipodi:docname="logo.svg"
   inkscape:export-filename="/home/jacobian/Proyectos/pleni/client/png/logo.png"
   inkscape:export-xdpi="90"
   inkscape:export-ydpi="90">
  <defs
     id="defs4">
    <linearGradient
       inkscape:collect="always"
       id="linearGradient4282">
      <stop
         style="stop-color:#658068;stop-opacity:1;"
         offset="0"
         id="stop4284" />
      <stop
         style="stop-color:#658068;stop-opacity:0;"
         offset="1"
         id="stop4286" />
    </linearGradient>
    <linearGradient
       id="linearGradient3794">
      <stop
         style="stop-color:#000000;stop-opacity:1"
         offset="0"
         id="stop3796" />
      <stop
         style="stop-color:#000000;stop-opacity:1;"
         offset="1"
         id="stop3798" />
    </linearGradient>
    <linearGradient
       id="linearGradient3813">
      <stop
         id="stop3815"
         offset="0"
         style="stop-color:#442178;stop-opacity:1;" />
      <stop
         id="stop3817"
         offset="1"
         style="stop-color:#000000;stop-opacity:1;" />
    </linearGradient>
    <linearGradient
       id="linearGradient3798">
      <stop
         id="stop3800"
         offset="0"
         style="stop-color:#ffffff;stop-opacity:1;" />
      <stop
         id="stop3802"
         offset="1"
         style="stop-color:#ffffff;stop-opacity:0;" />
    </linearGradient>
    <linearGradient
       id="linearGradient3888"
       inkscape:collect="always">
      <stop
         id="stop3890"
         offset="0"
         style="stop-color:#d5f6ff;stop-opacity:1" />
      <stop
         id="stop3892"
         offset="1"
         style="stop-color:#6f8a91;stop-opacity:0;" />
    </linearGradient>
    <linearGradient
       id="linearGradient3864"
       inkscape:collect="always">
      <stop
         id="stop3866"
         offset="0"
         style="stop-color:#afdde9;stop-opacity:1" />
      <stop
         id="stop3868"
         offset="1"
         style="stop-color:#37abc8;stop-opacity:0;" />
    </linearGradient>
    <linearGradient
       id="linearGradient3848"
       inkscape:collect="always">
      <stop
         id="stop3850"
         offset="0"
         style="stop-color:#c83737;stop-opacity:1;" />
      <stop
         id="stop3852"
         offset="1"
         style="stop-color:#c83737;stop-opacity:0;" />
    </linearGradient>
    <linearGradient
       id="linearGradient3840"
       inkscape:collect="always">
      <stop
         id="stop3842"
         offset="0"
         style="stop-color:#ffcc00;stop-opacity:1;" />
      <stop
         id="stop3844"
         offset="1"
         style="stop-color:#ffcc00;stop-opacity:0;" />
    </linearGradient>
    <linearGradient
       id="linearGradient3776">
      <stop
         id="stop3778"
         offset="0"
         style="stop-color:#0000ff;stop-opacity:1;" />
      <stop
         id="stop3780"
         offset="1"
         style="stop-color:#0000ff;stop-opacity:0;" />
    </linearGradient>
    <radialGradient
       gradientUnits="userSpaceOnUse"
       r="35.433071"
       fy="237.6606"
       fx="-185.65063"
       cy="237.6606"
       cx="-185.65063"
       id="radialGradient3846"
       xlink:href="#linearGradient3840"
       inkscape:collect="always" />
    <radialGradient
       gradientUnits="userSpaceOnUse"
       r="35.433071"
       fy="238.132"
       fx="-184.23642"
       cy="238.132"
       cx="-184.23642"
       id="radialGradient3854"
       xlink:href="#linearGradient3848"
       inkscape:collect="always" />
    <radialGradient
       gradientUnits="userSpaceOnUse"
       r="35.433071"
       fy="238.132"
       fx="-187.06485"
       cy="238.132"
       cx="-187.06485"
       id="radialGradient3870"
       xlink:href="#linearGradient3864"
       inkscape:collect="always" />
    <radialGradient
       gradientUnits="userSpaceOnUse"
       r="35.433071"
       fy="237.07133"
       fx="-188.12552"
       cy="237.07133"
       cx="-188.12552"
       id="radialGradient3894"
       xlink:href="#linearGradient3888"
       inkscape:collect="always" />
    <radialGradient
       r="35.433071"
       fy="238.132"
       fx="-184.23642"
       cy="238.132"
       cx="-184.23642"
       gradientUnits="userSpaceOnUse"
       id="radialGradient3924"
       xlink:href="#linearGradient3848"
       inkscape:collect="always" />
    <radialGradient
       r="35.433071"
       fy="237.6606"
       fx="-185.65063"
       cy="237.6606"
       cx="-185.65063"
       gradientUnits="userSpaceOnUse"
       id="radialGradient3926"
       xlink:href="#linearGradient3840"
       inkscape:collect="always" />
    <radialGradient
       r="35.433071"
       fy="238.132"
       fx="-187.06485"
       cy="238.132"
       cx="-187.06485"
       gradientUnits="userSpaceOnUse"
       id="radialGradient3928"
       xlink:href="#linearGradient3864"
       inkscape:collect="always" />
    <radialGradient
       r="35.433071"
       fy="237.07133"
       fx="-188.12552"
       cy="237.07133"
       cx="-188.12552"
       gradientUnits="userSpaceOnUse"
       id="radialGradient3930"
       xlink:href="#linearGradient3888"
       inkscape:collect="always" />
    <radialGradient
       gradientUnits="userSpaceOnUse"
       gradientTransform="matrix(1.3951871,0,0,1.3934009,-53.143999,-197.34467)"
       r="70.967567"
       fy="504.43985"
       fx="140.21207"
       cy="504.43985"
       cx="140.21207"
       id="radialGradient3827"
       xlink:href="#linearGradient3813"
       inkscape:collect="always" />
    <linearGradient
       inkscape:collect="always"
       xlink:href="#linearGradient4282"
       id="linearGradient4288"
       x1="50.204582"
       y1="768"
       x2="50.204582"
       y2="529.20605"
       gradientUnits="userSpaceOnUse" />
  </defs>
  <sodipodi:namedview
     id="base"
     pagecolor="#ffffff"
     bordercolor="#666666"
     borderopacity="1.0"
     inkscape:pageopacity="0.0"
     inkscape:pageshadow="2"
     inkscape:zoom="1.4142136"
     inkscape:cx="373.70632"
     inkscape:cy="-28.10529"
     inkscape:document-units="px"
     inkscape:current-layer="layer"
     showgrid="false"
     inkscape:showpageshadow="false"
     inkscape:window-width="1914"
     inkscape:window-height="1056"
     inkscape:window-x="0"
     inkscape:window-y="0"
     inkscape:window-maximized="1"
     inkscape:snap-global="true"
     objecttolerance="10"
     gridtolerance="10"
     showguides="true"
     inkscape:guide-bbox="true">
    <inkscape:grid
       type="xygrid"
       id="grid2985"
       empspacing="4"
       visible="true"
       enabled="true"
       snapvisiblegridlinesonly="true"
       spacingx="16px"
       spacingy="16px" />
    <sodipodi:guide
       orientation="0,1"
       position="0,0"
       id="guide3010"
       inkscape:label=""
       inkscape:color="rgb(0,0,255)" />
    <sodipodi:guide
       orientation="0,1"
       position="0,120"
       id="guide3012"
       inkscape:label=""
       inkscape:color="rgb(0,0,255)" />
    <sodipodi:guide
       position="0,0"
       orientation="1,0"
       id="guide4260" />
    <sodipodi:guide
       position="480,0"
       orientation="1,0"
       id="guide4262"
       inkscape:label=""
       inkscape:color="rgb(0,0,255)" />
    <sodipodi:guide
       position="0,60"
       orientation="0,1"
       id="guide4294"
       inkscape:label=""
       inkscape:color="rgb(0,0,255)" />
  </sodipodi:namedview>
  <metadata
     id="metadata7">
    <rdf:RDF>
      <cc:Work
         rdf:about="">
        <dc:format>image/svg+xml</dc:format>
        <dc:type
           rdf:resource="http://purl.org/dc/dcmitype/StillImage" />
        <dc:title></dc:title>
      </cc:Work>
    </rdf:RDF>
  </metadata>
  <g
     inkscape:groupmode="layer"
     id="layer"
     inkscape:label="text"
     style="display:inline"
     transform="translate(0,-648)">
    <path
       style="opacity:1;fill:#1b211c;fill-opacity:1;fill-rule:evenodd;stroke:none;stroke-width:2;stroke-linecap:square;stroke-linejoin:miter;stroke-miterlimit:4;stroke-dasharray:2, 8;stroke-dashoffset:0;stroke-opacity:1"
       d="m 0,768 0,0.97309 C 448.55537,768 480,707.26851 480,707.26851 L 480,768 Z"
       id="path4290"
       inkscape:connector-curvature="0"
       sodipodi:nodetypes="ccccc" />
    <rect
       style="opacity:1;fill:url(#linearGradient4288);fill-opacity:1;fill-rule:evenodd;stroke:none;stroke-width:1;stroke-linecap:butt;stroke-linejoin:miter;stroke-miterlimit:4;stroke-dasharray:none;stroke-dashoffset:0;stroke-opacity:1"
       id="rect4258"
       width="480"
       height="120"
       x="0"
       y="648" />
    <g
       id="g4236"
       transform="matrix(0.53659673,0,0,0.53659673,118.13994,347.407)"
       style="fill:#000000">
      <path
         sodipodi:nodetypes="sscccssssssss"
         inkscape:connector-curvature="0"
         id="path1"
         d="m 219.3419,640 c -17.64701,0 -32,14.35301 -32,32 l 0,96 8,0 0,-74.73477 c 5.85494,6.63459 14.45573,10.73477 24,10.73477 17.647,0 32,-14.35298 32,-32 0,-17.64699 -14.353,-32 -32,-32 z m 0,8 c 13.23525,0 24,10.76477 24,24 0,13.23528 -10.76475,24 -24,24 -13.23526,0 -24,-10.76473 -24,-24 0,-13.23523 10.76474,-24 24,-24 z"
         style="display:inline;fill:#000000;fill-opacity:1;fill-rule:evenodd;stroke:none" />
      <path
         sodipodi:nodetypes="ccccc"
         style="display:inline;fill:#000000;fill-opacity:1;fill-rule:evenodd;stroke:none"
         d="m 267.34191,704 -8,0 0,-128 8,0 z"
         id="path2"
         inkscape:connector-curvature="0" />
      <path
         sodipodi:nodetypes="sssccsccssccss"
         inkscape:connector-curvature="0"
         style="display:inline;fill:#000000;fill-opacity:1;stroke:none"
         d="m 307.34191,640 c -17.66905,0 -32,14.33098 -32,32 0,17.66904 14.33095,32 32,32 17.66905,0 31.99013,-14.3165 32,-32 l -8,0 c -0.0398,13.25562 -10.75883,24 -24,24 -6.26384,0 -11.95903,-2.42249 -16.22986,-6.3558 l 43.95843,-33.60529 C 329.32568,646.10407 318.77178,640 307.34191,640 Z m 0,8.03361 c 6.12331,0 12.01428,2.33989 16.45611,6.53436 l -37.6362,28.68331 c -1.78419,-3.35358 -2.80048,-7.18764 -2.80048,-11.25128 0,-13.24113 10.7394,-23.96639 23.98057,-23.96639 z"
         id="path3" />
      <path
         inkscape:connector-curvature="0"
         id="path4"
         d="m 379.34191,640 c -17.67481,0 -32,14.3252 -32,32 l 0,32 8,0 0,-32 c 0,-13.2561 10.7439,-24 24,-24 13.25609,0 24,10.7439 24,24 l 0,32.0625 8,0 0,-32.0625 c 0,-17.6748 -14.32519,-32 -32,-32 z"
         style="display:inline;fill:#000000;fill-opacity:1;fill-rule:evenodd;stroke:none" />
      <path
         inkscape:connector-curvature="0"
         id="path5"
         d="m 427.34191,704 -8,0 0,-64 8,0 z"
         style="display:inline;fill:#000000;fill-opacity:1;fill-rule:evenodd;stroke:none"
         sodipodi:nodetypes="ccccc" />
      <path
         d="m 275.89191,724.63 c -10e-6,-1.01999 -0.17001,-1.79999 -0.51,-2.34 -0.32001,-0.53999 -0.94001,-0.80999 -1.86,-0.81 -0.20001,10e-6 -0.45001,0.03 -0.75,0.09 -0.30001,0.04 -0.59001,0.14001 -0.87,0.3 -0.26001,0.16001 -0.49001,0.41001 -0.69,0.75 -0.20001,0.32001 -0.30001,0.76001 -0.3,1.32 -10e-6,0.48001 0.10999,0.87001 0.33,1.17 0.23999,0.30001 0.53999,0.56001 0.9,0.78 0.37999,0.20001 0.79999,0.37001 1.26,0.51 0.47999,0.14001 0.96999,0.29001 1.47,0.45 0.47999,0.16001 0.94999,0.34001 1.41,0.54 0.47999,0.18001 0.89999,0.44001 1.26,0.78 0.37998,0.32001 0.67998,0.74001 0.9,1.26 0.23998,0.50001 0.35998,1.15001 0.36,1.95 -2e-5,0.84 -0.13002,1.58 -0.39,2.22 -0.26002,0.62 -0.62001,1.14 -1.08,1.56 -0.46001,0.42 -1.01001,0.73 -1.65,0.93 -0.64001,0.22 -1.33001,0.33 -2.07,0.33 -1.36001,0 -2.42001,-0.22 -3.18,-0.66 -0.74001,-0.44 -1.29001,-0.96 -1.65,-1.56 -0.34001,-0.62 -0.54001,-1.25 -0.6,-1.89 -0.06,-0.64 -0.09,-1.17 -0.09,-1.59 l 2.52,0 c -1e-5,0.48 0.04,0.95 0.12,1.41 0.08,0.44 0.22999,0.84 0.45,1.2 0.21999,0.34 0.51999,0.61 0.9,0.81 0.39999,0.2 0.90999,0.3 1.53,0.3 0.19999,0 0.44999,-0.03 0.75,-0.09 0.29999,-0.06 0.58999,-0.19 0.87,-0.39 0.29999,-0.2 0.54999,-0.47 0.75,-0.81 0.19999,-0.34 0.29999,-0.8 0.3,-1.38 -10e-6,-0.54 -0.12001,-0.97999 -0.36,-1.32 -0.22001,-0.35999 -0.52001,-0.64999 -0.9,-0.87 -0.36001,-0.23999 -0.78001,-0.43999 -1.26,-0.6 -0.46001,-0.15999 -0.93001,-0.31999 -1.41,-0.48 -0.48001,-0.15999 -0.96001,-0.32999 -1.44,-0.51 -0.48001,-0.19999 -0.91001,-0.45999 -1.29,-0.78 -0.36001,-0.31999 -0.66001,-0.73999 -0.9,-1.26 -0.22001,-0.51999 -0.33001,-1.18999 -0.33,-2.01 -10e-6,-0.73999 0.12999,-1.38999 0.39,-1.95 0.27999,-0.55999 0.64999,-1.01998 1.11,-1.38 0.47999,-0.37998 1.02999,-0.65998 1.65,-0.84 0.61999,-0.17998 1.27999,-0.26998 1.98,-0.27 1.15999,2e-5 2.06999,0.18002 2.73,0.54 0.65999,0.36002 1.14999,0.80002 1.47,1.32 0.31998,0.52001 0.50998,1.08001 0.57,1.68 0.08,0.58001 0.11998,1.11001 0.12,1.59 l -2.52,0"
         style="font-style:normal;font-variant:normal;font-weight:normal;font-stretch:normal;font-size:medium;line-height:125%;font-family:'Helvetica Neue LT Com';-inkscape-font-specification:'Helvetica Neue LT Com';letter-spacing:0px;word-spacing:0px;fill:#000000;fill-opacity:1;stroke:none"
         id="path2994"
         inkscape:connector-curvature="0" />
      <path
         d="m 283.27941,728.26 c -10e-6,0.62001 0.01,1.29001 0.03,2.01 0.04,0.72001 0.15999,1.39 0.36,2.01 0.19999,0.62 0.49999,1.14 0.9,1.56 0.41999,0.4 1.01999,0.6 1.8,0.6 0.59999,0 1.07999,-0.13 1.44,-0.39 0.35999,-0.28 0.62999,-0.61 0.81,-0.99 0.19999,-0.4 0.32999,-0.81 0.39,-1.23 0.06,-0.44 0.09,-0.81 0.09,-1.11 l 2.52,0 c -1e-5,0.42 -0.08,0.96 -0.24,1.62 -0.14001,0.64 -0.41001,1.27 -0.81,1.89 -0.40001,0.6 -0.95001,1.12 -1.65,1.56 -0.70001,0.42 -1.60001,0.63 -2.7,0.63 -1.98001,0 -3.41001,-0.68 -4.29,-2.04 -0.86001,-1.36 -1.29001,-3.42999 -1.29,-6.21 -10e-6,-0.99999 0.06,-2.00999 0.18,-3.03 0.13999,-1.03999 0.40999,-1.96999 0.81,-2.79 0.41999,-0.83999 0.99999,-1.51998 1.74,-2.04 0.75999,-0.53998 1.75999,-0.80998 3,-0.81 1.21999,2e-5 2.18999,0.24002 2.91,0.72 0.71999,0.48002 1.25999,1.10001 1.62,1.86 0.35999,0.74001 0.58999,1.57001 0.69,2.49 0.1,0.92001 0.14999,1.81001 0.15,2.67 l 0,1.02 -8.46,0 m 5.82,-1.98 0,-0.87 c -10e-6,-0.43999 -0.04,-0.88999 -0.12,-1.35 -0.08,-0.47999 -0.23001,-0.90999 -0.45,-1.29 -0.20001,-0.37999 -0.48001,-0.68999 -0.84,-0.93 -0.36001,-0.23999 -0.82001,-0.35999 -1.38,-0.36 -0.66001,10e-6 -1.19001,0.18001 -1.59,0.54 -0.38001,0.34001 -0.67001,0.74001 -0.87,1.2 -0.20001,0.46001 -0.33001,0.93001 -0.39,1.41 -0.06,0.46001 -0.09,0.81001 -0.09,1.05 l 0,0.6 5.73,0"
         style="font-style:normal;font-variant:normal;font-weight:normal;font-stretch:normal;font-size:medium;line-height:125%;font-family:'Helvetica Neue LT Com';-inkscape-font-specification:'Helvetica Neue LT Com';letter-spacing:0px;word-spacing:0px;fill:#000000;fill-opacity:1;stroke:none"
         id="path2996"
         inkscape:connector-curvature="0" />
      <path
         d="m 302.13019,724.81 c -1e-5,-0.37999 -0.05,-0.76999 -0.15,-1.17 -0.08,-0.39999 -0.22001,-0.75999 -0.42,-1.08 -0.18001,-0.31999 -0.44001,-0.57999 -0.78,-0.78 -0.32001,-0.19999 -0.72001,-0.29999 -1.2,-0.3 -0.40001,10e-6 -0.79,0.07 -1.17,0.21 -0.36,0.14001 -0.69,0.45001 -0.99,0.93 -0.3,0.46001 -0.54,1.13001 -0.72,2.01 -0.18,0.88001 -0.27,2.05001 -0.27,3.51 0,0.52001 0.01,1.14001 0.03,1.86 0.04,0.72001 0.16,1.41 0.36,2.07 0.2,0.66 0.5,1.22 0.9,1.68 0.42,0.46 1.01,0.69 1.77,0.69 0.53999,0 0.97999,-0.13 1.32,-0.39 0.33999,-0.26 0.60999,-0.58 0.81,-0.96 0.19999,-0.4 0.32999,-0.83 0.39,-1.29 0.08,-0.48 0.11999,-0.93999 0.12,-1.38 l 2.52,0 c -1e-5,0.64 -0.09,1.31 -0.27,2.01 -0.16001,0.7 -0.45001,1.35 -0.87,1.95 -0.40001,0.58 -0.94001,1.07 -1.62,1.47 -0.68001,0.38 -1.52001,0.57 -2.52,0.57 -1.98,0 -3.41,-0.68 -4.29,-2.04 -0.86,-1.36 -1.29,-3.42999 -1.29,-6.21 0,-0.99999 0.06,-2.00999 0.18,-3.03 0.14,-1.03999 0.41,-1.96999 0.81,-2.79 0.42,-0.83999 1,-1.51998 1.74,-2.04 0.76,-0.53998 1.76,-0.80998 3,-0.81 1.09999,2e-5 1.97999,0.19002 2.64,0.57 0.67999,0.38002 1.19999,0.85002 1.56,1.41 0.37999,0.54001 0.62999,1.12001 0.75,1.74 0.11999,0.60001 0.17999,1.13001 0.18,1.59 l -2.52,0"
         style="font-style:normal;font-variant:normal;font-weight:normal;font-stretch:normal;font-size:medium;line-height:125%;font-family:'Helvetica Neue LT Com';-inkscape-font-specification:'Helvetica Neue LT Com';letter-spacing:0px;word-spacing:0px;fill:#000000;fill-opacity:1;stroke:none"
         id="path2998"
         inkscape:connector-curvature="0" />
      <path
         d="m 317.84363,736 -2.4,0 0,-1.89 -0.06,0 c -0.34001,0.74 -0.88001,1.31 -1.62,1.71 -0.74001,0.4 -1.50001,0.6 -2.28,0.6 -1.06001,0 -1.88001,-0.17 -2.46,-0.51 -0.56,-0.36 -0.98,-0.8 -1.26,-1.32 -0.26,-0.52 -0.41,-1.07 -0.45,-1.65 -0.04,-0.6 -0.06,-1.14 -0.06,-1.62 l 0,-11.4 2.52,0 0,11.1 c -1e-5,0.3 0.01,0.64 0.03,1.02 0.04,0.38 0.13999,0.74 0.3,1.08 0.15999,0.32 0.38999,0.59 0.69,0.81 0.31999,0.22 0.76999,0.33 1.35,0.33 0.33999,0 0.68999,-0.06 1.05,-0.18 0.37999,-0.12 0.72999,-0.31 1.05,-0.57 0.31999,-0.26 0.57999,-0.59 0.78,-0.99 0.19999,-0.42 0.29999,-0.92 0.3,-1.5 l 0,-11.1 2.52,0 0,16.08"
         style="font-style:normal;font-variant:normal;font-weight:normal;font-stretch:normal;font-size:medium;line-height:125%;font-family:'Helvetica Neue LT Com';-inkscape-font-specification:'Helvetica Neue LT Com';letter-spacing:0px;word-spacing:0px;fill:#000000;fill-opacity:1;stroke:none"
         id="path3000"
         inkscape:connector-curvature="0" />
      <path
         d="m 321.14035,719.92 2.52,0 0,2.4 0.06,0 c 0.17999,-0.37999 0.36999,-0.73999 0.57,-1.08 0.21999,-0.33998 0.46999,-0.63998 0.75,-0.9 0.27999,-0.25998 0.58999,-0.45998 0.93,-0.6 0.35999,-0.15998 0.76999,-0.23998 1.23,-0.24 0.49999,2e-5 0.86999,0.06 1.11,0.18 l 0,2.46 c -0.12001,-0.02 -0.28001,-0.04 -0.48,-0.06 -0.18001,-0.04 -0.47001,-0.06 -0.87,-0.06 -0.32001,10e-6 -0.67001,0.08 -1.05,0.24 -0.38001,0.14001 -0.74001,0.37001 -1.08,0.69 -0.32001,0.30001 -0.60001,0.69001 -0.84,1.17 -0.22001,0.48001 -0.33001,1.05001 -0.33,1.71 l 0,10.17 -2.52,0 0,-16.08"
         style="font-style:normal;font-variant:normal;font-weight:normal;font-stretch:normal;font-size:medium;line-height:125%;font-family:'Helvetica Neue LT Com';-inkscape-font-specification:'Helvetica Neue LT Com';letter-spacing:0px;word-spacing:0px;fill:#000000;fill-opacity:1;stroke:none"
         id="path3002"
         inkscape:connector-curvature="0" />
      <path
         d="m 330.1966,714.58 2.52,0 0,2.88 -2.52,0 0,-2.88 m 0,5.34 2.52,0 0,16.08 -2.52,0 0,-16.08"
         style="font-style:normal;font-variant:normal;font-weight:normal;font-stretch:normal;font-size:medium;line-height:125%;font-family:'Helvetica Neue LT Com';-inkscape-font-specification:'Helvetica Neue LT Com';letter-spacing:0px;word-spacing:0px;fill:#000000;fill-opacity:1;stroke:none"
         id="path3004"
         inkscape:connector-curvature="0" />
      <path
         d="m 336.89035,715.24 2.52,0 0,4.68 2.79,0 0,1.98 -2.79,0 0,10.32 c -10e-6,0.64 0.10999,1.1 0.33,1.38 0.21999,0.28 0.65999,0.42 1.32,0.42 0.27999,0 0.49999,-0.01 0.66,-0.03 0.15999,-0.02 0.30999,-0.04 0.45,-0.06 l 0,2.07 c -0.16001,0.04 -0.41001,0.08 -0.75,0.12 -0.34001,0.04 -0.77001,0.06 -1.29,0.06 -0.66001,0 -1.20001,-0.06 -1.62,-0.18 -0.42001,-0.14 -0.75001,-0.34 -0.99,-0.6 -0.24001,-0.28 -0.41001,-0.62 -0.51,-1.02 -0.08,-0.4 -0.12,-0.86 -0.12,-1.38 l 0,-11.1 -2.34,0 0,-1.98 2.34,0 0,-4.68"
         style="font-style:normal;font-variant:normal;font-weight:normal;font-stretch:normal;font-size:medium;line-height:125%;font-family:'Helvetica Neue LT Com';-inkscape-font-specification:'Helvetica Neue LT Com';letter-spacing:0px;word-spacing:0px;fill:#000000;fill-opacity:1;stroke:none"
         id="path3006"
         inkscape:connector-curvature="0" />
      <path
         d="m 342.58332,719.92 2.76,0 3.18,12.9 0.06,0 2.82,-12.9 2.76,0 -4.65,17.16 c -0.16001,0.56 -0.33001,1.09 -0.51,1.59 -0.18001,0.5 -0.43001,0.94 -0.75,1.32 -0.30001,0.4 -0.69001,0.71 -1.17,0.93 -0.48001,0.23999 -1.10001,0.35999 -1.86,0.36 -0.50001,-10e-6 -0.88001,-0.01 -1.14,-0.03 -0.24001,-0.02 -0.47001,-0.04 -0.69,-0.06 l 0,-1.98 c 0.35999,0.06 0.84999,0.09 1.47,0.09 0.57999,0 1.00999,-0.15 1.29,-0.45 0.29999,-0.3 0.52999,-0.67 0.69,-1.11 l 0.48,-1.41 -4.74,-16.41"
         style="font-style:normal;font-variant:normal;font-weight:normal;font-stretch:normal;font-size:medium;line-height:125%;font-family:'Helvetica Neue LT Com';-inkscape-font-specification:'Helvetica Neue LT Com';letter-spacing:0px;word-spacing:0px;fill:#000000;fill-opacity:1;stroke:none"
         id="path3009"
         inkscape:connector-curvature="0" />
      <path
         d="m 364.07785,715.24 2.52,0 0,4.68 2.79,0 0,1.98 -2.79,0 0,10.32 c -10e-6,0.64 0.10999,1.1 0.33,1.38 0.21999,0.28 0.65999,0.42 1.32,0.42 0.27999,0 0.49999,-0.01 0.66,-0.03 0.15999,-0.02 0.30999,-0.04 0.45,-0.06 l 0,2.07 c -0.16001,0.04 -0.41001,0.08 -0.75,0.12 -0.34001,0.04 -0.77001,0.06 -1.29,0.06 -0.66001,0 -1.20001,-0.06 -1.62,-0.18 -0.42001,-0.14 -0.75001,-0.34 -0.99,-0.6 -0.24001,-0.28 -0.41001,-0.62 -0.51,-1.02 -0.08,-0.4 -0.12,-0.86 -0.12,-1.38 l 0,-11.1 -2.34,0 0,-1.98 2.34,0 0,-4.68"
         style="font-style:normal;font-variant:normal;font-weight:normal;font-stretch:normal;font-size:medium;line-height:125%;font-family:'Helvetica Neue LT Com';-inkscape-font-specification:'Helvetica Neue LT Com';letter-spacing:0px;word-spacing:0px;fill:#000000;fill-opacity:1;stroke:none"
         id="path3011"
         inkscape:connector-curvature="0" />
      <path
         d="m 370.34082,727.96 c 0,-1.13999 0.08,-2.21999 0.24,-3.24 0.17999,-1.01999 0.47999,-1.90999 0.9,-2.67 0.43999,-0.77999 1.02999,-1.39998 1.77,-1.86 0.75999,-0.45998 1.71999,-0.68998 2.88,-0.69 1.15999,2e-5 2.10999,0.23002 2.85,0.69 0.75999,0.46002 1.34999,1.08001 1.77,1.86 0.43998,0.76001 0.73998,1.65001 0.9,2.67 0.17998,1.02001 0.26998,2.10001 0.27,3.24 -2e-5,1.14001 -0.09,2.22001 -0.27,3.24 -0.16002,1.02 -0.46002,1.92 -0.9,2.7 -0.44001,0.76 -1.03001,1.37 -1.77,1.83 -0.74001,0.46 -1.69001,0.69 -2.85,0.69 -1.16001,0 -2.12001,-0.23 -2.88,-0.69 -0.74001,-0.46 -1.33001,-1.07 -1.77,-1.83 -0.42001,-0.78 -0.72001,-1.68 -0.9,-2.7 -0.16,-1.01999 -0.24,-2.09999 -0.24,-3.24 m 5.73,6.48 c 0.65999,0 1.19999,-0.17 1.62,-0.51 0.41999,-0.36 0.74999,-0.83 0.99,-1.41 0.23999,-0.6 0.39999,-1.29 0.48,-2.07 0.08,-0.77999 0.11999,-1.60999 0.12,-2.49 -1e-5,-0.85999 -0.04,-1.67999 -0.12,-2.46 -0.08,-0.79999 -0.24001,-1.48999 -0.48,-2.07 -0.22001,-0.59999 -0.54001,-1.06999 -0.96,-1.41 -0.42001,-0.35999 -0.97001,-0.53999 -1.65,-0.54 -0.64001,10e-6 -1.16001,0.18001 -1.56,0.54 -0.40001,0.34001 -0.72001,0.81001 -0.96,1.41 -0.22001,0.58001 -0.37001,1.27001 -0.45,2.07 -0.08,0.78001 -0.12001,1.60001 -0.12,2.46 -10e-6,0.88001 0.04,1.71001 0.12,2.49 0.08,0.78 0.22999,1.47 0.45,2.07 0.21999,0.58 0.52999,1.05 0.93,1.41 0.41999,0.34 0.94999,0.51 1.59,0.51"
         style="font-style:normal;font-variant:normal;font-weight:normal;font-stretch:normal;font-size:medium;line-height:125%;font-family:'Helvetica Neue LT Com';-inkscape-font-specification:'Helvetica Neue LT Com';letter-spacing:0px;word-spacing:0px;fill:#000000;fill-opacity:1;stroke:none"
         id="path3013"
         inkscape:connector-curvature="0" />
      <path
         d="m 383.6416,727.96 c 0,-1.13999 0.08,-2.21999 0.24,-3.24 0.18,-1.01999 0.48,-1.90999 0.9,-2.67 0.44,-0.77999 1.02999,-1.39998 1.77,-1.86 0.75999,-0.45998 1.71999,-0.68998 2.88,-0.69 1.15999,2e-5 2.10999,0.23002 2.85,0.69 0.75999,0.46002 1.34999,1.08001 1.77,1.86 0.43999,0.76001 0.73999,1.65001 0.9,2.67 0.17999,1.02001 0.26999,2.10001 0.27,3.24 -1e-5,1.14001 -0.09,2.22001 -0.27,3.24 -0.16001,1.02 -0.46001,1.92 -0.9,2.7 -0.44001,0.76 -1.03001,1.37 -1.77,1.83 -0.74001,0.46 -1.69001,0.69 -2.85,0.69 -1.16001,0 -2.12001,-0.23 -2.88,-0.69 -0.74001,-0.46 -1.33,-1.07 -1.77,-1.83 -0.42,-0.78 -0.72,-1.68 -0.9,-2.7 -0.16,-1.01999 -0.24,-2.09999 -0.24,-3.24 m 5.73,6.48 c 0.65999,0 1.19999,-0.17 1.62,-0.51 0.41999,-0.36 0.74999,-0.83 0.99,-1.41 0.23999,-0.6 0.39999,-1.29 0.48,-2.07 0.08,-0.77999 0.11999,-1.60999 0.12,-2.49 -10e-6,-0.85999 -0.04,-1.67999 -0.12,-2.46 -0.08,-0.79999 -0.24001,-1.48999 -0.48,-2.07 -0.22001,-0.59999 -0.54001,-1.06999 -0.96,-1.41 -0.42001,-0.35999 -0.97001,-0.53999 -1.65,-0.54 -0.64001,10e-6 -1.16001,0.18001 -1.56,0.54 -0.40001,0.34001 -0.72001,0.81001 -0.96,1.41 -0.22001,0.58001 -0.37001,1.27001 -0.45,2.07 -0.08,0.78001 -0.12001,1.60001 -0.12,2.46 -1e-5,0.88001 0.04,1.71001 0.12,2.49 0.08,0.78 0.22999,1.47 0.45,2.07 0.21999,0.58 0.52999,1.05 0.93,1.41 0.41999,0.34 0.94999,0.51 1.59,0.51"
         style="font-style:normal;font-variant:normal;font-weight:normal;font-stretch:normal;font-size:medium;line-height:125%;font-family:'Helvetica Neue LT Com';-inkscape-font-specification:'Helvetica Neue LT Com';letter-spacing:0px;word-spacing:0px;fill:#000000;fill-opacity:1;stroke:none"
         id="path3015"
         inkscape:connector-curvature="0" />
      <path
         d="m 397.87238,714.58 2.52,0 0,21.42 -2.52,0 0,-21.42"
         style="font-style:normal;font-variant:normal;font-weight:normal;font-stretch:normal;font-size:medium;line-height:125%;font-family:'Helvetica Neue LT Com';-inkscape-font-specification:'Helvetica Neue LT Com';letter-spacing:0px;word-spacing:0px;fill:#000000;fill-opacity:1;stroke:none"
         id="path3017"
         inkscape:connector-curvature="0" />
      <path
         d="m 415.81613,736 -2.94,0 -4.47,-7.95 -2.07,2.52 0,5.43 -2.52,0 0,-21.42 2.52,0 0,12.75 0.06,0 5.64,-7.41 2.94,0 -4.89,6.06 5.73,10.02"
         style="font-style:normal;font-variant:normal;font-weight:normal;font-stretch:normal;font-size:medium;line-height:125%;font-family:'Helvetica Neue LT Com';-inkscape-font-specification:'Helvetica Neue LT Com';letter-spacing:0px;word-spacing:0px;fill:#000000;fill-opacity:1;stroke:none"
         id="path3019"
         inkscape:connector-curvature="0" />
      <path
         d="m 417.26691,714.58 2.52,0 0,2.88 -2.52,0 0,-2.88 m 0,5.34 2.52,0 0,16.08 -2.52,0 0,-16.08"
         style="font-style:normal;font-variant:normal;font-weight:normal;font-stretch:normal;font-size:medium;line-height:125%;font-family:'Helvetica Neue LT Com';-inkscape-font-specification:'Helvetica Neue LT Com';letter-spacing:0px;word-spacing:0px;fill:#000000;fill-opacity:1;stroke:none"
         id="path3021"
         inkscape:connector-curvature="0" />
      <path
         d="m 423.96066,715.24 2.52,0 0,4.68 2.79,0 0,1.98 -2.79,0 0,10.32 c 0,0.64 0.10999,1.1 0.33,1.38 0.21999,0.28 0.65999,0.42 1.32,0.42 0.27999,0 0.49999,-0.01 0.66,-0.03 0.15999,-0.02 0.30999,-0.04 0.45,-0.06 l 0,2.07 c -0.16001,0.04 -0.41001,0.08 -0.75,0.12 -0.34001,0.04 -0.77001,0.06 -1.29,0.06 -0.66,0 -1.2,-0.06 -1.62,-0.18 -0.42,-0.14 -0.75,-0.34 -0.99,-0.6 -0.24,-0.28 -0.41,-0.62 -0.51,-1.02 -0.08,-0.4 -0.12,-0.86 -0.12,-1.38 l 0,-11.1 -2.34,0 0,-1.98 2.34,0 0,-4.68"
         style="font-style:normal;font-variant:normal;font-weight:normal;font-stretch:normal;font-size:medium;line-height:125%;font-family:'Helvetica Neue LT Com';-inkscape-font-specification:'Helvetica Neue LT Com';letter-spacing:0px;word-spacing:0px;fill:#000000;fill-opacity:1;stroke:none"
         id="path3023"
         inkscape:connector-curvature="0" />
    </g>
    <g
       transform="matrix(0.58460775,0,0,0.58460775,112.54903,124.93498)"
       id="layer1"
       inkscape:label="Capa 1">
      <g
         transform="matrix(0.88709677,0,0,0.88709677,-535.19657,779.77289)"
         id="g4659"
         style="display:inline">
        <path
           sodipodi:nodetypes="sssss"
           inkscape:connector-curvature="0"
           style="fill:none;stroke:#000000;stroke-width:4;stroke-miterlimit:4;stroke-dasharray:none;stroke-opacity:1"
           d="m 665.3125,185.28125 c -33.13708,0 -60,26.86292 -60,60 0,33.13708 26.86292,60 60,60 33.13708,0 60,-26.86292 60,-60 0,-33.13708 -26.86292,-60 -60,-60 z"
           id="path4646" />
        <circle
           r="80"
           cy="246"
           cx="684"
           transform="matrix(0.625,0,0,0.625,237.8125,91.53125)"
           id="path4654"
           style="fill:#000000;fill-opacity:1;fill-rule:evenodd;stroke:none" />
      </g>
    </g>
  </g>
</svg>
