<?xml version="1.0" encoding="UTF-8" standalone="no"?>
<!-- Created with Inkscape (http://www.inkscape.org/) -->

<svg
   xmlns:dc="http://purl.org/dc/elements/1.1/"
   xmlns:cc="http://creativecommons.org/ns#"
   xmlns:rdf="http://www.w3.org/1999/02/22-rdf-syntax-ns#"
   xmlns:svg="http://www.w3.org/2000/svg"
   xmlns="http://www.w3.org/2000/svg"
   xmlns:sodipodi="http://sodipodi.sourceforge.net/DTD/sodipodi-0.dtd"
   xmlns:inkscape="http://www.inkscape.org/namespaces/inkscape"
   width="5000"
   height="5000"
   viewBox="0 0 5000 5000"
   id="svg2"
   version="1.1"
   inkscape:version="0.91 r13725"
   sodipodi:docname="tasks_clean.svg">
  <defs
     id="defs4" />
  <sodipodi:namedview
     id="base"
     pagecolor="#ffffff"
     bordercolor="#666666"
     borderopacity="1.0"
     inkscape:pageopacity="1"
     inkscape:pageshadow="2"
     inkscape:zoom="0.39349888"
     inkscape:cx="498.84146"
     inkscape:cy="1757.1768"
     inkscape:document-units="px"
     inkscape:current-layer="layer1"
     showgrid="false"
     units="px"
     inkscape:showpageshadow="false"
     inkscape:window-width="1914"
     inkscape:window-height="1056"
     inkscape:window-x="0"
     inkscape:window-y="0"
     inkscape:window-maximized="1"
     showguides="true"
     inkscape:guide-bbox="true"
     objecttolerance="20"
     borderlayer="true">
    <inkscape:grid
       type="xygrid"
       id="grid4136"
       spacingx="16"
       spacingy="16"
       empspacing="8" />
    <sodipodi:guide
       position="0,0"
       orientation="0,1"
       id="guide4163"
       inkscape:label=""
       inkscape:color="rgb(0,0,255)" />
    <sodipodi:guide
       position="0,1000"
       orientation="0,1"
       id="guide4204"
       inkscape:label=""
       inkscape:color="rgb(0,0,255)" />
    <sodipodi:guide
       position="0,0"
       orientation="1,0"
       id="guide4208" />
    <sodipodi:guide
       position="1000,0"
       orientation="1,0"
       id="guide4153"
       inkscape:label=""
       inkscape:color="rgb(0,0,255)" />
    <sodipodi:guide
       position="2000,0"
       orientation="1,0"
       id="guide4155"
       inkscape:label=""
       inkscape:color="rgb(0,0,255)" />
    <sodipodi:guide
       position="3000,0"
       orientation="1,0"
       id="guide4193"
       inkscape:label=""
       inkscape:color="rgb(0,0,255)" />
    <sodipodi:guide
       position="4000,0"
       orientation="1,0"
       id="guide4205"
       inkscape:label=""
       inkscape:color="rgb(0,0,255)" />
    <sodipodi:guide
       position="5000,0"
       orientation="1,0"
       id="guide4226"
       inkscape:label=""
       inkscape:color="rgb(0,0,255)" />
    <sodipodi:guide
       position="5869.5835,1992.7263"
       orientation="0,1"
       id="guide3352"
       inkscape:label=""
       inkscape:color="rgb(0,0,255)" />
    <sodipodi:guide
       position="0,3000"
       orientation="0,1"
       id="guide3354"
       inkscape:label=""
       inkscape:color="rgb(0,0,255)" />
    <sodipodi:guide
       position="0,4000"
       orientation="0,1"
       id="guide3356"
       inkscape:label=""
       inkscape:color="rgb(0,0,255)" />
    <sodipodi:guide
       position="0,5000"
       orientation="0,1"
       id="guide3358"
       inkscape:label=""
       inkscape:color="rgb(0,0,255)" />
  </sodipodi:namedview>
  <metadata
     id="metadata7">
    <rdf:RDF>
      <cc:Work
         rdf:about="">
        <dc:format>image/svg+xml</dc:format>
        <dc:type
           rdf:resource="http://purl.org/dc/dcmitype/StillImage" />
        <dc:title />
      </cc:Work>
    </rdf:RDF>
  </metadata>
  <g
     inkscape:label="Capa 1"
     inkscape:groupmode="layer"
     id="layer1"
     transform="translate(0,3947.6378)">
    <rect
       y="52.362202"
       x="2000"
       height="1000"
       width="1000"
       id="rect3670"
       style="opacity:1;fill:#000000;fill-opacity:1;fill-rule:nonzero;stroke:none;stroke-width:1;stroke-linecap:round;stroke-linejoin:round;stroke-miterlimit:10;stroke-dasharray:none;stroke-dashoffset:0;stroke-opacity:1" />
    <rect
       style="opacity:1;fill:#000000;fill-opacity:1;fill-rule:nonzero;stroke:none;stroke-width:1;stroke-linecap:round;stroke-linejoin:round;stroke-miterlimit:10;stroke-dasharray:none;stroke-dashoffset:0;stroke-opacity:1"
       id="rect3672"
       width="1000"
       height="1000"
       x="3000"
       y="52.362202" />
    <rect
       y="52.362202"
       x="4000"
       height="1000"
       width="1000"
       id="rect3674"
       style="opacity:1;fill:#000000;fill-opacity:1;fill-rule:nonzero;stroke:none;stroke-width:1;stroke-linecap:round;stroke-linejoin:round;stroke-miterlimit:10;stroke-dasharray:none;stroke-dashoffset:0;stroke-opacity:1" />
    <rect
       style="opacity:1;fill:#000000;fill-opacity:1;fill-rule:nonzero;stroke:none;stroke-width:1;stroke-linecap:round;stroke-linejoin:round;stroke-miterlimit:10;stroke-dasharray:none;stroke-dashoffset:0;stroke-opacity:1"
       id="rect3676"
       width="1000"
       height="1000"
       x="1000"
       y="-947.63782" />
    <rect
       y="52.362202"
       x="0"
       height="1000"
       width="1000"
       id="rect3678"
       style="opacity:1;fill:#000000;fill-opacity:1;fill-rule:nonzero;stroke:none;stroke-width:1;stroke-linecap:round;stroke-linejoin:round;stroke-miterlimit:10;stroke-dasharray:none;stroke-dashoffset:0;stroke-opacity:1" />
    <rect
       style="opacity:1;fill:#000000;fill-opacity:1;fill-rule:nonzero;stroke:none;stroke-width:1;stroke-linecap:round;stroke-linejoin:round;stroke-miterlimit:10;stroke-dasharray:none;stroke-dashoffset:0;stroke-opacity:1"
       id="rect3646"
       width="1000"
       height="1000"
       x="1000"
       y="52.362202" />
    <g
       id="g4161"
       transform="matrix(0.74903187,0,0,0.74903187,128,175.94303)" />
    <g
       transform="matrix(0.74903187,0,0,0.74903187,639.99999,182.4255)"
       id="g4187" />
    <g
       id="g4209"
       transform="matrix(0.95470272,0,0,0.95470272,38.985732,43.285008)">
      <g
         transform="matrix(0.43030272,0,0,0.43030272,897.6765,491.34804)"
         id="g4199" />
    </g>
    <g
       id="g4240"
       transform="matrix(1.0964302,0,0,1.0964302,-110.89255,-89.349469)" />
    <path
       style="opacity:1;fill:#ffffff;fill-opacity:1;fill-rule:nonzero;stroke:none;stroke-width:25;stroke-linecap:round;stroke-linejoin:round;stroke-miterlimit:10;stroke-dasharray:none;stroke-dashoffset:0;stroke-opacity:1"
       d="m 1563.1484,243.4052 c -123.1965,-0.1813 -175.5293,94.0215 -175.5293,94.0215 0,0 -67.5505,-41.647 -142.9628,16.1562 -72.8711,55.8554 -52.3477,123.9629 -52.3477,123.9629 0,0 -192.30867,7e-4 -192.3086,192.3086 10e-5,192.3077 192.3086,192.3086 192.3086,192.3086 l 653.8457,0 c 0,0 153.8457,-0.001 153.8457,-153.8477 0,-153.8464 -153.8457,-153.8457 -153.8457,-153.8457 0,0 73.0329,-174.8719 -142.5723,-275.8144 -54.4527,-25.4938 -101.0615,-35.1921 -140.4336,-35.25 z m -63.6894,234.0156 a 35.958048,35.958048 0 0 1 36.4961,36.4609 l 0,79.1016 79.0996,0 a 35.958048,35.958048 0 1 1 0,71.9082 l -79.0996,0 0,79.0996 a 35.958048,35.958048 0 1 1 -71.9102,0 l 0,-79.0996 -79.0996,0 a 35.958048,35.958048 0 1 1 0,-71.9082 l 79.0996,0 0,-79.1016 a 35.958048,35.958048 0 0 1 35.4141,-36.4609 z"
       id="path4138"
       inkscape:connector-curvature="0" />
    <path
       style="opacity:1;fill:#ffffff;fill-opacity:1;fill-rule:nonzero;stroke:none;stroke-width:25;stroke-linecap:round;stroke-linejoin:round;stroke-miterlimit:10;stroke-dasharray:none;stroke-dashoffset:0;stroke-opacity:1"
       d="m 2563.1484,243.4052 c -123.1965,-0.1813 -175.5293,94.0215 -175.5293,94.0215 0,0 -67.5504,-41.647 -142.9629,16.1562 -72.871,55.8554 -52.3496,123.9629 -52.3496,123.9629 0,0 -192.3066,7e-4 -192.3066,192.3086 10e-5,192.3077 192.3066,192.3086 192.3066,192.3086 l 653.8477,0 c 0,0 153.8457,-0.001 153.8457,-153.8477 0,-153.8464 -153.8457,-153.8457 -153.8457,-153.8457 0,0 73.0329,-174.8719 -142.5723,-275.8144 -54.4527,-25.4938 -101.0615,-35.1921 -140.4336,-35.25 z m -144.8808,267.8593 a 35.958048,35.958048 0 0 1 25.8008,10.8926 l 55.9316,55.9317 55.9316,-55.9317 a 35.958048,35.958048 0 0 1 24.7168,-10.8769 35.958048,35.958048 0 0 1 26.1309,61.7246 l -55.9316,55.9316 55.9316,55.9317 a 35.958048,35.958048 0 1 1 -50.8477,50.8476 L 2500,679.7841 l -55.9316,55.9316 a 35.958048,35.958048 0 1 1 -50.8477,-50.8476 l 55.9316,-55.9317 -55.9316,-55.9316 a 35.958048,35.958048 0 0 1 25.0469,-61.7403 z"
       id="path4175"
       inkscape:connector-curvature="0" />
    <path
       style="opacity:1;fill:#ffffff;fill-opacity:1;fill-rule:nonzero;stroke:none;stroke-width:25;stroke-linecap:round;stroke-linejoin:round;stroke-miterlimit:10;stroke-dasharray:none;stroke-dashoffset:0;stroke-opacity:1"
       d="m 3563.1484,243.4052 c -123.1965,-0.1813 -175.5293,94.0215 -175.5293,94.0215 0,0 -67.5504,-41.647 -142.9629,16.1562 -72.871,55.8554 -52.3496,123.9629 -52.3496,123.9629 0,0 -192.3067,7e-4 -192.3066,192.3086 1e-4,192.3077 192.3066,192.3086 192.3066,192.3086 l 653.8477,0 c 0,0 153.8457,-0.001 153.8457,-153.8477 0,-153.8464 -153.8457,-153.8457 -153.8457,-153.8457 0,0 73.033,-174.8719 -142.5723,-275.8144 -54.4527,-25.4938 -101.0615,-35.1921 -140.4336,-35.25 z m -63.6894,234.0156 a 35.958048,35.958048 0 0 1 36.4961,36.4609 l 0,160.1153 57.9844,-42.0684 a 35.958048,35.958048 0 0 1 22.5371,-7.1406 35.958048,35.958048 0 0 1 19.6914,65.3437 l -115.0547,83.4746 a 35.958048,35.958048 0 0 1 -3.3184,2.0879 35.958048,35.958048 0 0 1 -0.074,0.043 35.958048,35.958048 0 0 1 -3.1699,1.5957 35.958048,35.958048 0 0 1 -0.01,0.004 35.958048,35.958048 0 0 1 -0.01,0.002 35.958048,35.958048 0 0 1 -3.3496,1.2851 35.958048,35.958048 0 0 1 -24.6445,-0.8281 35.958048,35.958048 0 0 1 -3.211,-1.4863 35.958048,35.958048 0 0 1 -0.09,-0.0469 35.958048,35.958048 0 0 1 -2.959,-1.7481 35.958048,35.958048 0 0 1 -0.168,-0.1074 35.958048,35.958048 0 0 1 -1.2285,-0.8008 L 3363.832,690.1317 a 35.958048,35.958048 0 1 1 42.2285,-58.2031 l 57.9844,42.0684 0,-160.1153 a 35.958048,35.958048 0 0 1 35.4141,-36.4609 z"
       id="path4185"
       inkscape:connector-curvature="0" />
    <path
       style="opacity:1;fill:#ffffff;fill-opacity:1;fill-rule:nonzero;stroke:none;stroke-width:25;stroke-linecap:round;stroke-linejoin:round;stroke-miterlimit:10;stroke-dasharray:none;stroke-dashoffset:0;stroke-opacity:1"
       d="m 4563.1484,243.4052 c -123.1965,-0.1813 -175.5293,94.0215 -175.5293,94.0215 0,0 -67.5505,-41.647 -142.9629,16.1562 -72.871,55.8554 -52.3496,123.9629 -52.3496,123.9629 0,0 -192.3067,7e-4 -192.3066,192.3086 0,192.3077 192.3066,192.3086 192.3066,192.3086 l 653.8477,0 c 0,0 153.8457,-0.001 153.8457,-153.8477 0,-153.8464 -153.8457,-153.8457 -153.8457,-153.8457 0,0 73.0329,-174.8719 -142.5723,-275.8144 -54.4527,-25.4938 -101.0615,-35.1921 -140.4336,-35.25 z M 4500,449.9794 c 96.213,0 174.6016,78.3886 174.6016,174.6016 0,96.2128 -78.3886,174.6035 -174.6016,174.6035 -96.213,0 -174.6016,-78.3906 -174.6016,-174.6035 0,-96.2131 78.3886,-174.6016 174.6016,-174.6016 z m 0,36.6621 c -76.3996,0 -137.9414,61.5398 -137.9414,137.9395 0,76.3995 61.5418,137.9414 137.9414,137.9414 76.3996,0 137.9414,-61.5418 137.9414,-137.9414 0,-76.3998 -61.5418,-137.9395 -137.9414,-137.9395 z m -0.2383,13.6973 a 15.797524,15.797524 0 0 1 16.0332,16.0195 l 0,91.4727 42.836,-21.5801 a 15.797524,15.797524 0 1 1 14.2148,28.2129 l -65.7383,33.1191 a 15.797524,15.797524 0 0 1 -22.9043,-14.1074 l 0,-117.1172 a 15.797524,15.797524 0 0 1 15.5586,-16.0195 z"
       id="path4197"
       inkscape:connector-curvature="0" />
    <path
       style="opacity:1;fill:#ffffff;fill-opacity:1;fill-rule:nonzero;stroke:none;stroke-width:25;stroke-linecap:round;stroke-linejoin:round;stroke-miterlimit:10;stroke-dasharray:none;stroke-dashoffset:0;stroke-opacity:1"
       d="m 1563.1484,-756.59482 c -123.1965,-0.1813 -175.5293,94.0215 -175.5293,94.0215 0,0 -67.5505,-41.647 -142.9629,16.1562 -72.8711,55.8554 -52.3496,123.9629 -52.3496,123.9629 0,0 -192.3066,7e-4 -192.3066,192.3086 0,192.3077 192.3066,192.3086 192.3066,192.3086 l 653.8477,0 c 0,0 153.8457,-0.002 153.8457,-153.8477 0,-153.8464 -153.8457,-153.8457 -153.8457,-153.8457 0,0 73.0329,-174.8719 -142.5723,-275.8144 -54.4526,-25.4938 -101.0615,-35.1921 -140.4336,-35.25 z m 32.1231,249.5859 a 15.270986,15.270986 0 0 1 15.7187,15.2637 l 0,57.873 117.2051,16.2715 a 13.927915,13.927915 0 0 1 5.6289,25.502 l -259.0449,166.9101 a 13.927915,13.927915 0 0 1 -18.2871,-2.8476 l -170.9824,-207.3594 a 13.927915,13.927915 0 0 1 -3.2676,-8.1524 15.270986,15.270986 0 0 1 -1.1426,-5.7734 c -4e-4,-6.6189 3.5394,-10.1765 5.3496,-11.7832 1.8102,-1.6067 2.9914,-2.1644 3.9903,-2.6602 1.9977,-0.9915 3.361,-1.4021 4.8945,-1.8632 3.067,-0.9222 6.5343,-1.7043 10.8613,-2.5821 8.654,-1.7555 20.4707,-3.7412 34.6231,-5.9199 28.3046,-4.3574 65.7858,-9.4376 103.2656,-14.291 74.9596,-9.7068 149.8594,-18.4902 149.8594,-18.4902 a 15.270986,15.270986 0 0 1 1.3281,-0.0977 z m -14.8203,32.4688 c -20.2692,2.4018 -71.3586,8.4939 -132.4453,16.4043 -36.4658,4.722 -72.6632,9.6442 -100.2618,13.8613 l 232.7071,97.8847 0,-128.1503 z m -242.1074,59.4414 131.7597,159.789 97.9981,-63.1426 -229.7578,-96.6464 z m 272.6464,9.3457 0,59.666 76.1836,-49.0879 -76.1836,-10.5781 z"
       id="path4216"
       inkscape:connector-curvature="0" />
    <path
       id="path3358"
       d="m 563.14844,242.98343 c -123.19657,-0.1813 -175.5293,94.0215 -175.5293,94.0215 0,0 -67.55053,-41.647 -142.96289,16.1562 -72.87105,55.8554 -52.34766,123.9629 -52.34766,123.9629 0,0 -192.308662001848,7e-4 -192.30859,192.3086 7.6801971e-5,192.3077 192.30859,192.3086 192.30859,192.3086 l 653.84571,0 c 0,0 153.8457,-10e-4 153.8457,-153.8477 0,-153.8464 -153.8457,-153.8457 -153.8457,-153.8457 0,0 73.03294,-174.8719 -142.57227,-275.8144 -54.45269,-25.4938 -101.06149,-35.1921 -140.43359,-35.25 z"
       style="opacity:1;fill:#ffffff;fill-opacity:1;fill-rule:nonzero;stroke:none;stroke-width:25;stroke-linecap:round;stroke-linejoin:round;stroke-miterlimit:10;stroke-dasharray:none;stroke-dashoffset:0;stroke-opacity:1"
       inkscape:connector-curvature="0"
       sodipodi:nodetypes="scscsccscss" />
    <g
       style="font-style:normal;font-variant:normal;font-weight:normal;font-stretch:normal;font-size:316.46401978px;line-height:125%;font-family:'Linux Libertine Display O';-inkscape-font-specification:'Linux Libertine Display O, Normal';text-align:start;letter-spacing:0px;word-spacing:0px;writing-mode:lr-tb;text-anchor:start;fill:#658068;fill-opacity:1;stroke:none;stroke-width:1px;stroke-linecap:butt;stroke-linejoin:miter;stroke-opacity:1"
       id="text3441" />
    <rect
       y="-947.63782"
       x="0"
       height="1000"
       width="1000"
       id="rect3433"
       style="opacity:1;fill:#000000;fill-opacity:1;fill-rule:nonzero;stroke:none;stroke-width:1;stroke-linecap:round;stroke-linejoin:round;stroke-miterlimit:10;stroke-dasharray:none;stroke-dashoffset:0;stroke-opacity:1" />
    <g
       id="g3435"
       transform="matrix(4.8001232,0,0,4.8001232,-114.41562,-4884.6902)"
       style="fill:#ffffff">
      <path
         sodipodi:nodetypes="cscsccscsc"
         inkscape:connector-curvature="0"
         id="path3437"
         d="m 104.58797,879.49745 c 0,0 -14.072615,-8.67631 -29.78312,3.36572 -15.181079,11.63625 -10.905783,25.82497 -10.905783,25.82497 0,0 -40.063077,0 -40.063062,40.06312 1.6e-5,40.06308 40.063062,40.06308 40.063062,40.06308 l 136.214463,0 c 0,0 32.05046,0 32.05046,-32.05046 0,-32.05051 -32.05046,-32.05051 -32.05046,-32.05051 0,0 15.21505,-36.43063 -29.70155,-57.45979 -46.83982,-21.92958 -65.82401,12.24387 -65.82401,12.24387 z"
         style="opacity:1;fill:#ffffff;fill-opacity:1;fill-rule:nonzero;stroke:none;stroke-width:25;stroke-linecap:round;stroke-linejoin:round;stroke-miterlimit:10;stroke-dasharray:none;stroke-dashoffset:0;stroke-opacity:1" />
      <g
         transform="matrix(0.74903187,0,0,0.74903187,128,175.94303)"
         id="g3439"
         style="fill:#ffffff" />
    </g>
    <g
       style="font-style:normal;font-variant:normal;font-weight:normal;font-stretch:normal;font-size:517.69219971px;line-height:125%;font-family:'Linux Libertine Display O';-inkscape-font-specification:'Linux Libertine Display O, Normal';text-align:start;letter-spacing:0px;word-spacing:0px;writing-mode:lr-tb;text-anchor:start;fill:#000000;fill-opacity:1;stroke:none;stroke-width:1px;stroke-linecap:butt;stroke-linejoin:miter;stroke-opacity:1"
       id="text3441-5">
      <path
         d="m 610.00975,-562.33979 -252.68043,0 0,11.90692 c 7.76538,0 21.22538,5.17692 35.20307,23.81384 l 87.48998,137.70613 -104.57382,139.2592 c -7.24769,8.80077 -12.42461,9.83615 -18.63692,9.83615 l 0,11.38923 260.44581,0 14.49538,-90.59614 -11.38923,-1.03538 c -0.51769,2.58846 -16.5665,55.09328 -52.8046,55.25211 l -144.95382,0 105.60921,-134.45902 0.51769,-0.51769 -89.04306,-134.45902 118.03382,0 c 29.50846,0 45.55692,35.57981 48.14538,45.41596 l 11.38923,-1.55307 z"
         id="path4286"
         inkscape:connector-curvature="0"
         sodipodi:nodetypes="cccccccccccsccccsccc" />
    </g>
  </g>
</svg>
