<?xml version="1.0" encoding="UTF-8" standalone="no"?>
<!-- Created with Inkscape (http://www.inkscape.org/) -->

<svg
   xmlns:dc="http://purl.org/dc/elements/1.1/"
   xmlns:cc="http://creativecommons.org/ns#"
   xmlns:rdf="http://www.w3.org/1999/02/22-rdf-syntax-ns#"
   xmlns:svg="http://www.w3.org/2000/svg"
   xmlns="http://www.w3.org/2000/svg"
   xmlns:sodipodi="http://sodipodi.sourceforge.net/DTD/sodipodi-0.dtd"
   xmlns:inkscape="http://www.inkscape.org/namespaces/inkscape"
   width="5000"
   height="5000"
   viewBox="0 0 5000 5000"
   id="svg2"
   version="1.1"
   inkscape:version="0.91 r13725"
   sodipodi:docname="tasks_clean.svg">
  <defs
     id="defs4" />
  <sodipodi:namedview
     id="base"
     pagecolor="#ffffff"
     bordercolor="#666666"
     borderopacity="1.0"
     inkscape:pageopacity="1"
     inkscape:pageshadow="2"
     inkscape:zoom="0.28531869"
     inkscape:cx="1067.6951"
     inkscape:cy="1305.5551"
     inkscape:document-units="px"
     inkscape:current-layer="layer1"
     showgrid="false"
     units="px"
     inkscape:showpageshadow="false"
     inkscape:window-width="1914"
     inkscape:window-height="1056"
     inkscape:window-x="0"
     inkscape:window-y="0"
     inkscape:window-maximized="1"
     showguides="true"
     inkscape:guide-bbox="true"
     objecttolerance="20"
     borderlayer="true">
    <inkscape:grid
       type="xygrid"
       id="grid4136"
       spacingx="16"
       spacingy="16"
       empspacing="8" />
    <sodipodi:guide
       position="0,0"
       orientation="0,1"
       id="guide4163"
       inkscape:label=""
       inkscape:color="rgb(0,0,255)" />
    <sodipodi:guide
       position="0,1000"
       orientation="0,1"
       id="guide4204"
       inkscape:label=""
       inkscape:color="rgb(0,0,255)" />
    <sodipodi:guide
       position="0,0"
       orientation="1,0"
       id="guide4208" />
    <sodipodi:guide
       position="1000,0"
       orientation="1,0"
       id="guide4153"
       inkscape:label=""
       inkscape:color="rgb(0,0,255)" />
    <sodipodi:guide
       position="2000,0"
       orientation="1,0"
       id="guide4155"
       inkscape:label=""
       inkscape:color="rgb(0,0,255)" />
    <sodipodi:guide
       position="3000,0"
       orientation="1,0"
       id="guide4193"
       inkscape:label=""
       inkscape:color="rgb(0,0,255)" />
    <sodipodi:guide
       position="4000,0"
       orientation="1,0"
       id="guide4205"
       inkscape:label=""
       inkscape:color="rgb(0,0,255)" />
    <sodipodi:guide
       position="5000,0"
       orientation="1,0"
       id="guide4226"
       inkscape:label=""
       inkscape:color="rgb(0,0,255)" />
    <sodipodi:guide
       position="0,2000"
       orientation="0,1"
       id="guide3352"
       inkscape:label=""
       inkscape:color="rgb(0,0,255)" />
    <sodipodi:guide
       position="0,3000"
       orientation="0,1"
       id="guide3354"
       inkscape:label=""
       inkscape:color="rgb(0,0,255)" />
    <sodipodi:guide
       position="0,4000"
       orientation="0,1"
       id="guide3356"
       inkscape:label=""
       inkscape:color="rgb(0,0,255)" />
    <sodipodi:guide
       position="0,5000"
       orientation="0,1"
       id="guide3358"
       inkscape:label=""
       inkscape:color="rgb(0,0,255)" />
  </sodipodi:namedview>
  <metadata
     id="metadata7">
    <rdf:RDF>
      <cc:Work
         rdf:about="">
        <dc:format>image/svg+xml</dc:format>
        <dc:type
           rdf:resource="http://purl.org/dc/dcmitype/StillImage" />
        <dc:title />
      </cc:Work>
    </rdf:RDF>
  </metadata>
  <g
     inkscape:label="Capa 1"
     inkscape:groupmode="layer"
     id="layer1"
     transform="translate(0,3947.6378)">
    <g
       id="g4161"
       transform="matrix(0.74903187,0,0,0.74903187,128,175.94303)" />
    <g
       transform="matrix(0.74903187,0,0,0.74903187,639.99999,182.4255)"
       id="g4187" />
    <g
       id="g4209"
       transform="matrix(0.95470272,0,0,0.95470272,38.985732,43.285008)">
      <g
         transform="matrix(0.43030272,0,0,0.43030272,897.6765,491.34804)"
         id="g4199" />
    </g>
    <g
       id="g4240"
       transform="matrix(1.0964302,0,0,1.0964302,-110.89255,-89.349469)" />
    <path
       style="opacity:1;fill:#d9ddd9;fill-opacity:1;fill-rule:nonzero;stroke:none;stroke-width:25;stroke-linecap:round;stroke-linejoin:round;stroke-miterlimit:10;stroke-dasharray:none;stroke-dashoffset:0;stroke-opacity:1"
       d="M 563.14844 4191.043 C 439.95187 4190.8617 387.61914 4285.0645 387.61914 4285.0645 C 387.61914 4285.0645 320.06861 4243.4175 244.65625 4301.2207 C 171.7852 4357.0761 192.30859 4425.1836 192.30859 4425.1836 C 192.30859 4425.1836 -7.2001848e-05 4425.1843 0 4617.4922 C 7.6801971e-05 4809.7999 192.30859 4809.8008 192.30859 4809.8008 L 846.1543 4809.8008 C 846.1543 4809.8008 1000 4809.7993 1000 4655.9531 C 1000 4502.1067 846.1543 4502.1074 846.1543 4502.1074 C 846.1543 4502.1074 919.18724 4327.2355 703.58203 4226.293 C 649.12934 4200.7992 602.52054 4191.1009 563.14844 4191.043 z M 499.45898 4425.0586 A 35.958048 35.958048 0 0 1 535.95508 4461.5195 L 535.95508 4540.6211 L 615.05469 4540.6211 A 35.958048 35.958048 0 1 1 615.05469 4612.5293 L 535.95508 4612.5293 L 535.95508 4691.6289 A 35.958048 35.958048 0 1 1 464.04492 4691.6289 L 464.04492 4612.5293 L 384.94531 4612.5293 A 35.958048 35.958048 0 1 1 384.94531 4540.6211 L 464.04492 4540.6211 L 464.04492 4461.5195 A 35.958048 35.958048 0 0 1 499.45898 4425.0586 z "
       transform="translate(0,-3947.6378)"
       id="path4138" />
    <path
       style="opacity:1;fill:#d9ddd9;fill-opacity:1;fill-rule:nonzero;stroke:none;stroke-width:25;stroke-linecap:round;stroke-linejoin:round;stroke-miterlimit:10;stroke-dasharray:none;stroke-dashoffset:0;stroke-opacity:1"
       d="M 1563.1484 4191.043 C 1439.9519 4190.8617 1387.6191 4285.0645 1387.6191 4285.0645 C 1387.6191 4285.0645 1320.0687 4243.4175 1244.6562 4301.2207 C 1171.7852 4357.0761 1192.3066 4425.1836 1192.3066 4425.1836 C 1192.3066 4425.1836 999.99995 4425.1843 1000 4617.4922 C 1000.0001 4809.7999 1192.3066 4809.8008 1192.3066 4809.8008 L 1846.1543 4809.8008 C 1846.1543 4809.8008 2000 4809.7993 2000 4655.9531 C 2000 4502.1067 1846.1543 4502.1074 1846.1543 4502.1074 C 1846.1543 4502.1074 1919.1872 4327.2355 1703.582 4226.293 C 1649.1293 4200.7992 1602.5205 4191.1009 1563.1484 4191.043 z M 1418.2676 4458.9023 A 35.958048 35.958048 0 0 1 1444.0684 4469.7949 L 1500 4525.7266 L 1555.9316 4469.7949 A 35.958048 35.958048 0 0 1 1580.6484 4458.918 A 35.958048 35.958048 0 0 1 1606.7793 4520.6426 L 1550.8477 4576.5742 L 1606.7793 4632.5059 A 35.958048 35.958048 0 1 1 1555.9316 4683.3535 L 1500 4627.4219 L 1444.0684 4683.3535 A 35.958048 35.958048 0 1 1 1393.2207 4632.5059 L 1449.1523 4576.5742 L 1393.2207 4520.6426 A 35.958048 35.958048 0 0 1 1418.2676 4458.9023 z "
       transform="translate(0,-3947.6378)"
       id="path4175" />
    <path
       style="opacity:1;fill:#d9ddd9;fill-opacity:1;fill-rule:nonzero;stroke:none;stroke-width:25;stroke-linecap:round;stroke-linejoin:round;stroke-miterlimit:10;stroke-dasharray:none;stroke-dashoffset:0;stroke-opacity:1"
       d="M 2563.1484 4191.043 C 2439.9519 4190.8617 2387.6191 4285.0645 2387.6191 4285.0645 C 2387.6191 4285.0645 2320.0687 4243.4175 2244.6562 4301.2207 C 2171.7852 4357.0761 2192.3066 4425.1836 2192.3066 4425.1836 C 2192.3066 4425.1836 1999.9999 4425.1843 2000 4617.4922 C 2000.0001 4809.7999 2192.3066 4809.8008 2192.3066 4809.8008 L 2846.1543 4809.8008 C 2846.1543 4809.8008 3000 4809.7993 3000 4655.9531 C 3000 4502.1067 2846.1543 4502.1074 2846.1543 4502.1074 C 2846.1543 4502.1074 2919.1873 4327.2355 2703.582 4226.293 C 2649.1293 4200.7992 2602.5205 4191.1009 2563.1484 4191.043 z M 2499.459 4425.0586 A 35.958048 35.958048 0 0 1 2535.9551 4461.5195 L 2535.9551 4621.6348 L 2593.9395 4579.5664 A 35.958048 35.958048 0 0 1 2616.4766 4572.4258 A 35.958048 35.958048 0 0 1 2636.168 4637.7695 L 2521.1133 4721.2441 A 35.958048 35.958048 0 0 1 2517.7949 4723.332 A 35.958048 35.958048 0 0 1 2517.7207 4723.375 A 35.958048 35.958048 0 0 1 2514.5508 4724.9707 A 35.958048 35.958048 0 0 1 2514.543 4724.9746 A 35.958048 35.958048 0 0 1 2514.5371 4724.9766 A 35.958048 35.958048 0 0 1 2511.1875 4726.2617 A 35.958048 35.958048 0 0 1 2486.543 4725.4336 A 35.958048 35.958048 0 0 1 2483.332 4723.9473 A 35.958048 35.958048 0 0 1 2483.2422 4723.9004 A 35.958048 35.958048 0 0 1 2480.2832 4722.1523 A 35.958048 35.958048 0 0 1 2480.1152 4722.0449 A 35.958048 35.958048 0 0 1 2478.8867 4721.2441 L 2363.832 4637.7695 A 35.958048 35.958048 0 1 1 2406.0605 4579.5664 L 2464.0449 4621.6348 L 2464.0449 4461.5195 A 35.958048 35.958048 0 0 1 2499.459 4425.0586 z "
       transform="translate(0,-3947.6378)"
       id="path4185" />
    <path
       style="opacity:1;fill:#d9ddd9;fill-opacity:1;fill-rule:nonzero;stroke:none;stroke-width:25;stroke-linecap:round;stroke-linejoin:round;stroke-miterlimit:10;stroke-dasharray:none;stroke-dashoffset:0;stroke-opacity:1"
       d="M 3563.1484 4191.043 C 3439.9519 4190.8617 3387.6191 4285.0645 3387.6191 4285.0645 C 3387.6191 4285.0645 3320.0686 4243.4175 3244.6562 4301.2207 C 3171.7852 4357.0761 3192.3066 4425.1836 3192.3066 4425.1836 C 3192.3066 4425.1836 2999.9999 4425.1843 3000 4617.4922 C 3000 4809.7999 3192.3066 4809.8008 3192.3066 4809.8008 L 3846.1543 4809.8008 C 3846.1543 4809.8008 4000 4809.7993 4000 4655.9531 C 4000 4502.1067 3846.1543 4502.1074 3846.1543 4502.1074 C 3846.1543 4502.1074 3919.1872 4327.2355 3703.582 4226.293 C 3649.1293 4200.7992 3602.5205 4191.1009 3563.1484 4191.043 z M 3500 4397.6172 C 3596.213 4397.6172 3674.6016 4476.0058 3674.6016 4572.2188 C 3674.6016 4668.4316 3596.213 4746.8223 3500 4746.8223 C 3403.787 4746.8223 3325.3984 4668.4317 3325.3984 4572.2188 C 3325.3984 4476.0057 3403.787 4397.6172 3500 4397.6172 z M 3500 4434.2793 C 3423.6004 4434.2793 3362.0586 4495.8191 3362.0586 4572.2188 C 3362.0586 4648.6183 3423.6004 4710.1602 3500 4710.1602 C 3576.3996 4710.1602 3637.9414 4648.6184 3637.9414 4572.2188 C 3637.9414 4495.819 3576.3996 4434.2793 3500 4434.2793 z M 3499.7617 4447.9766 A 15.797524 15.797524 0 0 1 3515.7949 4463.9961 L 3515.7949 4555.4688 L 3558.6309 4533.8887 A 15.797524 15.797524 0 1 1 3572.8457 4562.1016 L 3507.1074 4595.2207 A 15.797524 15.797524 0 0 1 3484.2031 4581.1133 L 3484.2031 4463.9961 A 15.797524 15.797524 0 0 1 3499.7617 4447.9766 z "
       transform="translate(0,-3947.6378)"
       id="path4197" />
    <path
       style="opacity:1;fill:#d9ddd9;fill-opacity:1;fill-rule:nonzero;stroke:none;stroke-width:25;stroke-linecap:round;stroke-linejoin:round;stroke-miterlimit:10;stroke-dasharray:none;stroke-dashoffset:0;stroke-opacity:1"
       d="M 4563.1484 4191.043 C 4439.9519 4190.8617 4387.6191 4285.0645 4387.6191 4285.0645 C 4387.6191 4285.0645 4320.0686 4243.4175 4244.6562 4301.2207 C 4171.7851 4357.0761 4192.3066 4425.1836 4192.3066 4425.1836 C 4192.3066 4425.1836 4000 4425.1843 4000 4617.4922 C 4000 4809.7999 4192.3066 4809.8008 4192.3066 4809.8008 L 4846.1543 4809.8008 C 4846.1543 4809.8008 5000 4809.7993 5000 4655.9531 C 5000 4502.1067 4846.1543 4502.1074 4846.1543 4502.1074 C 4846.1543 4502.1074 4919.1872 4327.2355 4703.582 4226.293 C 4649.1294 4200.7992 4602.5205 4191.1009 4563.1484 4191.043 z M 4595.2715 4440.6289 A 15.270986 15.270986 0 0 1 4610.9902 4455.8926 L 4610.9902 4513.7656 L 4728.1953 4530.0371 A 13.927915 13.927915 0 0 1 4733.8242 4555.5391 L 4474.7793 4722.4492 A 13.927915 13.927915 0 0 1 4456.4922 4719.6016 L 4285.5098 4512.2422 A 13.927915 13.927915 0 0 1 4282.2422 4504.0898 A 15.270986 15.270986 0 0 1 4281.0996 4498.3164 C 4281.0992 4491.6975 4284.639 4488.1399 4286.4492 4486.5332 C 4288.2594 4484.9265 4289.4406 4484.3688 4290.4395 4483.873 C 4292.4372 4482.8815 4293.8005 4482.4709 4295.334 4482.0098 C 4298.401 4481.0876 4301.8683 4480.3055 4306.1953 4479.4277 C 4314.8493 4477.6722 4326.666 4475.6865 4340.8184 4473.5078 C 4369.123 4469.1504 4406.6042 4464.0702 4444.084 4459.2168 C 4519.0436 4449.51 4593.9434 4440.7266 4593.9434 4440.7266 A 15.270986 15.270986 0 0 1 4595.2715 4440.6289 z M 4580.4512 4473.0977 C 4560.182 4475.4995 4509.0926 4481.5916 4448.0059 4489.502 C 4411.5401 4494.224 4375.3427 4499.1462 4347.7441 4503.3633 L 4580.4512 4601.248 L 4580.4512 4473.0977 z M 4338.3438 4532.5391 L 4470.1035 4692.3281 L 4568.1016 4629.1855 L 4338.3438 4532.5391 z M 4610.9902 4541.8848 L 4610.9902 4601.5508 L 4687.1738 4552.4629 L 4610.9902 4541.8848 z "
       transform="translate(0,-3947.6378)"
       id="path4216" />
    <path
       id="path3358"
       d="m 563.14844,-757.01659 c -123.19657,-0.1813 -175.5293,94.0215 -175.5293,94.0215 0,0 -67.55053,-41.647 -142.96289,16.1562 -72.87105,55.8554 -52.34766,123.9629 -52.34766,123.9629 0,0 -192.308662001848,7e-4 -192.30859,192.3086 7.6801971e-5,192.3077 192.30859,192.3086 192.30859,192.3086 l 653.84571,0 c 0,0 153.8457,-0.001 153.8457,-153.8477 0,-153.8464 -153.8457,-153.8457 -153.8457,-153.8457 0,0 73.03294,-174.8719 -142.57227,-275.8144 -54.45269,-25.4938 -101.06149,-35.1921 -140.43359,-35.25 z"
       style="opacity:1;fill:#d9ddd9;fill-opacity:1;fill-rule:nonzero;stroke:none;stroke-width:25;stroke-linecap:round;stroke-linejoin:round;stroke-miterlimit:10;stroke-dasharray:none;stroke-dashoffset:0;stroke-opacity:1"
       inkscape:connector-curvature="0"
       sodipodi:nodetypes="scscsccscss" />
  </g>
</svg>
