<?xml version="1.0" encoding="UTF-8" standalone="no"?>
<!-- Created with Inkscape (http://www.inkscape.org/) -->

<svg
   xmlns:dc="http://purl.org/dc/elements/1.1/"
   xmlns:cc="http://creativecommons.org/ns#"
   xmlns:rdf="http://www.w3.org/1999/02/22-rdf-syntax-ns#"
   xmlns:svg="http://www.w3.org/2000/svg"
   xmlns="http://www.w3.org/2000/svg"
   xmlns:sodipodi="http://sodipodi.sourceforge.net/DTD/sodipodi-0.dtd"
   xmlns:inkscape="http://www.inkscape.org/namespaces/inkscape"
   width="32"
   height="32"
   id="svg2"
   version="1.1"
   inkscape:version="0.48.5 r10040"
   sodipodi:docname="tile.svg">
  <defs
     id="defs4">
    <inkscape:perspective
       sodipodi:type="inkscape:persp3d"
       inkscape:vp_x="-16 : 5.333333 : 0"
       inkscape:vp_y="0 : 1000 : 0"
       inkscape:vp_z="32 : 16 : 1"
       inkscape:persp3d-origin="16 : 10.666667 : 1"
       id="perspective3048" />
  </defs>
  <sodipodi:namedview
     id="base"
     pagecolor="#000000"
     bordercolor="#666666"
     borderopacity="1.0"
     inkscape:pageopacity="0"
     inkscape:pageshadow="2"
     inkscape:zoom="16.000001"
     inkscape:cx="12.474043"
     inkscape:cy="19.356449"
     inkscape:document-units="px"
     inkscape:current-layer="layer1"
     showgrid="false"
     inkscape:showpageshadow="false"
     inkscape:window-width="1570"
     inkscape:window-height="968"
     inkscape:window-x="185"
     inkscape:window-y="68"
     inkscape:window-maximized="0">
    <inkscape:grid
       type="xygrid"
       id="grid3760"
       empspacing="4"
       visible="true"
       enabled="true"
       snapvisiblegridlinesonly="true" />
  </sodipodi:namedview>
  <metadata
     id="metadata7">
    <rdf:RDF>
      <cc:Work
         rdf:about="">
        <dc:format>image/svg+xml</dc:format>
        <dc:type
           rdf:resource="http://purl.org/dc/dcmitype/StillImage" />
        <dc:title />
      </cc:Work>
    </rdf:RDF>
  </metadata>
  <g
     inkscape:label="Capa 1"
     inkscape:groupmode="layer"
     id="layer1"
     transform="translate(0,-1020.3622)">
    <path
       style="font-size:medium;font-style:normal;font-variant:normal;font-weight:normal;font-stretch:normal;text-indent:0;text-align:start;text-decoration:none;line-height:normal;letter-spacing:normal;word-spacing:normal;text-transform:none;direction:ltr;block-progression:tb;writing-mode:lr-tb;text-anchor:start;baseline-shift:baseline;color:#000000;fill:#ffffff;fill-opacity:0.19607843;stroke:none;stroke-width:0.99984801000000001;marker:none;visibility:visible;display:inline;overflow:visible;enable-background:accumulate;font-family:Sans;-inkscape-font-specification:Sans"
       d="M 4.78125 0.0625 C 1.247066 4.5022424 -0.56756097 10.222649 0.1875 16 C 0.86623268 21.193352 3.7843755 25.929672 7.90625 28.875 C 6.7798092 29.824752 5.7587703 30.85809 4.84375 32 L 7.21875 32 C 7.9167852 31.248701 8.6952431 30.557649 9.5 29.90625 C 12.427025 31.548398 15.820287 32.316041 19.4375 31.84375 C 26.706957 30.89465 32.881096 24.472 31.875 16.875 C 31.124663 11.2093 26.009662 6.42775 20.03125 7.21875 C 15.56716 7.80935 11.807834 11.7459 12.4375 16.4375 C 12.908577 19.9474 16.083015 22.90635 19.8125 22.40625 C 22.610352 22.03105 24.934652 19.55925 24.53125 16.59375 C 24.227496 14.36075 22.240961 12.4867 19.84375 12.8125 C 18.030121 13.059 16.48168 14.679 16.75 16.625 C 16.954185 18.1058 18.325024 19.31585 19.9375 19.09375 A 0.87114455 0.86803215 0.00014877174 1 0 19.6875 17.40625 C 19.123144 17.48425 18.582884 16.9761 18.5 16.375 C 18.375636 15.473 19.1635 14.689 20.09375 14.5625 C 21.443553 14.3791 22.659803 15.49155 22.84375 16.84375 C 23.10523 18.76605 21.444706 20.46215 19.53125 20.71875 C 16.848471 21.07845 14.540236 18.8782 14.1875 16.25 C 13.697768 12.6011 16.733802 9.37975 20.3125 8.90625 C 25.244896 8.25365 29.491566 12.2795 30.125 17.0625 C 30.993106 23.6175 25.633093 29.32295 19.25 30.15625 C 10.541767 31.29325 2.9730554 24.2143 1.875 15.8125 C 1.1240133 10.066301 3.2428898 4.2967034 7.125 0.0625 L 4.78125 0.0625 z "
       transform="translate(0,1020.3622)"
       id="path3772" />
  </g>
</svg>
