<?xml version="1.0" encoding="UTF-8" standalone="no"?>
<!-- Created with Inkscape (http://www.inkscape.org/) -->

<svg
   xmlns:dc="http://purl.org/dc/elements/1.1/"
   xmlns:cc="http://creativecommons.org/ns#"
   xmlns:rdf="http://www.w3.org/1999/02/22-rdf-syntax-ns#"
   xmlns:svg="http://www.w3.org/2000/svg"
   xmlns="http://www.w3.org/2000/svg"
   xmlns:sodipodi="http://sodipodi.sourceforge.net/DTD/sodipodi-0.dtd"
   xmlns:inkscape="http://www.inkscape.org/namespaces/inkscape"
   width="256"
   height="192"
   id="svg2"
   version="1.1"
   inkscape:version="0.48.5 r10040"
   sodipodi:docname="text.svg">
  <defs
     id="defs4" />
  <sodipodi:namedview
     id="base"
     pagecolor="#ffffff"
     bordercolor="#666666"
     borderopacity="1.0"
     inkscape:pageopacity="0.0"
     inkscape:pageshadow="2"
     inkscape:zoom="2"
     inkscape:cx="3.08828"
     inkscape:cy="80.139955"
     inkscape:document-units="px"
     inkscape:current-layer="layer2"
     showgrid="true"
     inkscape:showpageshadow="false"
     inkscape:window-width="1914"
     inkscape:window-height="1055"
     inkscape:window-x="0"
     inkscape:window-y="0"
     inkscape:window-maximized="1"
     inkscape:snap-global="true"
     objecttolerance="10"
     gridtolerance="10"
     showguides="true"
     inkscape:guide-bbox="true">
    <inkscape:grid
       type="xygrid"
       id="grid2985"
       empspacing="4"
       visible="true"
       enabled="true"
       snapvisiblegridlinesonly="true"
       spacingx="16px"
       spacingy="16px" />
    <sodipodi:guide
       orientation="0,1"
       position="90.312501,64.000001"
       id="guide3010" />
    <sodipodi:guide
       orientation="0,1"
       position="112.25,192"
       id="guide3012" />
    <sodipodi:guide
       orientation="0,1"
       position="-11,128"
       id="guide3014" />
  </sodipodi:namedview>
  <metadata
     id="metadata7">
    <rdf:RDF>
      <cc:Work
         rdf:about="">
        <dc:format>image/svg+xml</dc:format>
        <dc:type
           rdf:resource="http://purl.org/dc/dcmitype/StillImage" />
        <dc:title />
      </cc:Work>
    </rdf:RDF>
  </metadata>
  <g
     inkscape:groupmode="layer"
     id="layer2"
     inkscape:label="text"
     style="display:inline"
     transform="translate(0,-576)">
    <path
       inkscape:connector-curvature="0"
       id="path2"
       d="m 80,704 -8,0 0,-128 8,0 z"
       style="fill:#184848;fill-opacity:1;fill-rule:evenodd;stroke:none;display:inline"
       sodipodi:nodetypes="ccccc" />
    <path
       style="fill:#184848;fill-opacity:1;fill-rule:evenodd;stroke:none;display:inline"
       d="M 31.999999,640 C 14.352989,640 -8.145871e-7,654.35301 -8.145871e-7,672 l 0,96 8.0000000145871,0 0,-74.73477 C 13.854939,699.89982 22.455729,704 31.999999,704 c 17.647,0 32,-14.35298 32,-32 0,-17.64699 -14.353,-32 -32,-32 z m 0,8 c 13.23525,0 24,10.76477 24,24 0,13.23528 -10.76475,24 -24,24 -13.23526,0 -23.9999998,-10.76473 -23.9999998,-24 0,-13.23523 10.7647398,-24 23.9999998,-24 z"
       id="path3"
       inkscape:connector-curvature="0"
       sodipodi:nodetypes="sscccssssssss" />
    <path
       id="path4"
       d="m 120,640 c -17.66905,0 -32,14.33098 -32,32 0,17.66904 14.33095,32 32,32 17.66905,0 31.99013,-14.3165 32,-32 l -8,0 c -0.0398,13.25562 -10.75883,24 -24,24 -6.26384,0 -11.95903,-2.42249 -16.22986,-6.3558 l 43.95843,-33.60529 C 141.98377,646.10407 131.42987,640 120,640 z m 0,8.03361 c 6.12331,0 12.01428,2.33989 16.45611,6.53436 l -37.6362,28.68331 C 97.03572,679.8977 96.01943,676.06364 96.01943,672 c 0,-13.24113 10.7394,-23.96639 23.98057,-23.96639 z"
       style="fill:#184848;fill-opacity:1;stroke:none;display:inline"
       inkscape:connector-curvature="0"
       sodipodi:nodetypes="sssccsccssccss" />
    <path
       style="fill:#184848;fill-opacity:1;fill-rule:evenodd;stroke:none;display:inline"
       d="m 192,640 c -17.67481,0 -32,14.3252 -32,32 l 0,32 8,0 0,-32 c 0,-13.2561 10.7439,-24 24,-24 13.25609,0 24,10.7439 24,24 l 0,32.0625 8,0 L 224,672 c 0,-17.6748 -14.32519,-32 -32,-32 z"
       id="path5"
       inkscape:connector-curvature="0" />
    <path
       sodipodi:nodetypes="ccccc"
       style="fill:#184848;fill-opacity:1;fill-rule:evenodd;stroke:none;display:inline"
       d="m 240,704 -8,0 0,-64 8,0 z"
       id="path3008"
       inkscape:connector-curvature="0" />
    <text
       xml:space="preserve"
       style="font-size:30px;font-style:normal;font-variant:normal;font-weight:normal;font-stretch:normal;line-height:125%;letter-spacing:0px;word-spacing:0px;fill:#184848;fill-opacity:1;stroke:none;font-family:Helvetica Neue LT Com;-inkscape-font-specification:Helvetica Neue LT Com"
       x="80"
       y="736"
       id="text3017"
       sodipodi:linespacing="125%"><tspan
         sodipodi:role="line"
         id="tspan3019"
         x="80"
         y="736">security toolkit</tspan></text>
  </g>
</svg>
