<?xml version="1.0" encoding="UTF-8" standalone="no"?>
<!-- Created with Inkscape (http://www.inkscape.org/) -->

<svg
   xmlns:dc="http://purl.org/dc/elements/1.1/"
   xmlns:cc="http://creativecommons.org/ns#"
   xmlns:rdf="http://www.w3.org/1999/02/22-rdf-syntax-ns#"
   xmlns:svg="http://www.w3.org/2000/svg"
   xmlns="http://www.w3.org/2000/svg"
   xmlns:sodipodi="http://sodipodi.sourceforge.net/DTD/sodipodi-0.dtd"
   xmlns:inkscape="http://www.inkscape.org/namespaces/inkscape"
   width="120"
   height="120"
   id="svg2"
   version="1.1"
   inkscape:version="0.48.5 r10040"
   sodipodi:docname="qs-sites.svg">
  <defs
     id="defs4" />
  <sodipodi:namedview
     id="base"
     pagecolor="#ffffff"
     bordercolor="#666666"
     borderopacity="1.0"
     inkscape:pageopacity="0.0"
     inkscape:pageshadow="2"
     inkscape:zoom="4"
     inkscape:cx="58.531442"
     inkscape:cy="71.348017"
     inkscape:document-units="px"
     inkscape:current-layer="layer1"
     showgrid="false"
     inkscape:showpageshadow="false"
     inkscape:window-width="1171"
     inkscape:window-height="872"
     inkscape:window-x="590"
     inkscape:window-y="121"
     inkscape:window-maximized="0"
     showguides="true"
     inkscape:guide-bbox="true">
    <sodipodi:guide
       orientation="1,0"
       position="60,0"
       id="guide3804" />
    <sodipodi:guide
       orientation="0,1"
       position="0,60"
       id="guide3806" />
    <sodipodi:guide
       orientation="1,0"
       position="92.703,0"
       id="guide3811" />
    <sodipodi:guide
       orientation="1,0"
       position="120,0"
       id="guide3813" />
  </sodipodi:namedview>
  <metadata
     id="metadata7">
    <rdf:RDF>
      <cc:Work
         rdf:about="">
        <dc:format>image/svg+xml</dc:format>
        <dc:type
           rdf:resource="http://purl.org/dc/dcmitype/StillImage" />
        <dc:title />
      </cc:Work>
    </rdf:RDF>
  </metadata>
  <g
     inkscape:label="Capa 1"
     inkscape:groupmode="layer"
     id="layer1"
     transform="translate(0,-932.36218)">
    <path
       sodipodi:type="arc"
       style="fill:#658068;fill-opacity:1;fill-rule:evenodd;stroke:none"
       id="path3789"
       sodipodi:cx="684"
       sodipodi:cy="246"
       sodipodi:rx="80"
       sodipodi:ry="80"
       d="m 764,246 a 80,80 0 1 1 -160,0 80,80 0 1 1 160,0 z"
       transform="matrix(-0.04686717,-0.08117633,0.08117633,-0.04686717,45.860523,1013.9246)"
       inkscape:transform-center-x="26.221606"
       inkscape:transform-center-y="-45.472623" />
    <path
       transform="matrix(-0.046875,0.08118988,-0.08118988,-0.046875,85.760394,993.80243)"
       d="m 764,246 a 80,80 0 1 1 -160,0 80,80 0 1 1 160,0 z"
       sodipodi:ry="80"
       sodipodi:rx="80"
       sodipodi:cy="246"
       sodipodi:cx="684"
       id="path3795"
       style="fill:#658068;fill-opacity:1;fill-rule:evenodd;stroke:none"
       sodipodi:type="arc"
       inkscape:transform-center-x="41.358036"
       inkscape:transform-center-y="71.343187" />
    <path
       style="font-size:medium;font-style:normal;font-variant:normal;font-weight:normal;font-stretch:normal;text-indent:0;text-align:start;text-decoration:none;line-height:normal;letter-spacing:normal;word-spacing:normal;text-transform:none;direction:ltr;block-progression:tb;writing-mode:lr-tb;text-anchor:start;baseline-shift:baseline;color:#000000;fill:#658068;fill-opacity:1;stroke:none;stroke-width:4;marker:none;visibility:visible;display:inline;overflow:visible;enable-background:accumulate;font-family:Sans;-inkscape-font-specification:Sans"
       d="m 60.023161,959.63319 c -18.050268,-2e-5 -32.705543,14.65526 -32.705502,32.70559 -3.1e-5,18.05022 14.655254,32.70542 32.705556,32.70542 18.050291,0 32.705582,-14.6552 32.705554,-32.70543 4e-5,-18.05033 -14.655235,-32.70561 -32.705608,-32.70558 z m 5.9e-5,2.11009 c 16.90996,-7e-5 30.595488,13.68556 30.595553,30.59547 -5.8e-5,16.90995 -13.685615,30.59545 -30.595558,30.59545 -16.909942,0 -30.595537,-13.6855 -30.59556,-30.59544 -2.9e-5,-16.90995 13.685592,-30.59554 30.595565,-30.59548 z"
       id="path4646"
       inkscape:connector-curvature="0"
       inkscape:transform-center-y="-0.013897071"
       inkscape:transform-center-x="-0.02401627" />
    <path
       transform="matrix(0.3296933,0,0,0.3296933,-165.48699,911.23422)"
       d="m 764,246 a 80,80 0 1 1 -160,0 80,80 0 1 1 160,0 z"
       sodipodi:ry="80"
       sodipodi:rx="80"
       sodipodi:cy="246"
       sodipodi:cx="684"
       id="path4654"
       style="fill:#658068;fill-opacity:1;fill-rule:evenodd;stroke:none"
       sodipodi:type="arc"
       inkscape:transform-center-x="-0.02402947"
       inkscape:transform-center-y="-0.013820271" />
    <path
       sodipodi:type="arc"
       style="fill:#658068;fill-opacity:1;fill-rule:evenodd;stroke:none"
       id="path3797"
       sodipodi:cx="684"
       sodipodi:cy="246"
       sodipodi:rx="80"
       sodipodi:ry="80"
       d="m 764,246 a 80,80 0 1 1 -160,0 80,80 0 1 1 160,0 z"
       transform="matrix(0.09375,0,0,0.09375,48.375,969.29968)"
       inkscape:transform-center-x="-82.536025"
       inkscape:transform-center-y="-0.020822958" />
  </g>
</svg>
